<mxfile host="app.diagrams.net" modified="2023-12-21T01:11:23.025Z" agent="Mozilla/5.0 (Windows NT 10.0; Win64; x64) AppleWebKit/537.36 (KHTML, like Gecko) Chrome/120.0.0.0 Safari/537.36" version="22.1.11" etag="jSk0xavdbSmo4giY1px9" type="github">
  <diagram name="페이지-1" id="OwUle3YJ_PPpaJ_IsZQq">
    <mxGraphModel>
      <root>
        <mxCell id="0" />
        <mxCell id="1" parent="0" />
      </root>
    </mxGraphModel>
  </diagram>
</mxfile>
